<?xml version="1.0" encoding="UTF-8"?>
<svg xmlns="http://www.w3.org/2000/svg" xmlns:xlink="http://www.w3.org/1999/xlink" width="95px" height="26px" viewBox="0 0 96 26" version="1.1">
<g id="surface1">
<path style=" stroke:none;fill-rule:nonzero;fill:rgb(89.803922%,3.529412%,7.843137%);fill-opacity:1;" d="M 90.863281 12.375 L 96 26 C 94.488281 25.785156 92.972656 25.511719 91.433594 25.269531 L 88.539062 17.738281 L 85.566406 24.644531 C 84.109375 24.402344 82.675781 24.320312 81.21875 24.128906 L 86.433594 12.214844 L 81.703125 0 L 86.082031 0 L 88.730469 6.824219 L 91.566406 0 L 96 0 Z M 78.246094 0 L 74.269531 0 L 74.269531 23.617188 C 75.570312 23.699219 76.917969 23.75 78.246094 23.914062 Z M 70.839844 23.34375 C 67.21875 23.101562 63.59375 22.886719 59.894531 22.804688 L 59.894531 0 L 63.945312 0 L 63.945312 18.957031 C 66.269531 19.011719 68.59375 19.199219 70.839844 19.308594 Z M 55.566406 9.234375 L 55.566406 13.296875 L 50.027344 13.296875 L 50.027344 22.535156 L 46.027344 22.535156 L 46.027344 0 L 57.378906 0 L 57.378906 4.0625 L 50.027344 4.0625 L 50.027344 9.234375 L 55.570312 9.234375 Z M 39.214844 4.0625 L 39.214844 22.75 C 37.863281 22.75 36.488281 22.75 35.160156 22.804688 L 35.160156 4.0625 L 30.972656 4.0625 L 30.972656 0 L 43.433594 0 L 43.433594 4.0625 Z M 26.59375 13.515625 C 24.8125 13.515625 22.703125 13.515625 21.1875 13.597656 L 21.1875 19.636719 C 23.566406 19.472656 25.945312 19.285156 28.351562 19.203125 L 28.351562 23.101562 L 17.136719 23.996094 L 17.136719 0 L 28.351562 0 L 28.351562 4.0625 L 21.1875 4.0625 L 21.1875 9.535156 C 22.757812 9.535156 25.164062 9.453125 26.59375 9.453125 Z M 4.132812 11.238281 L 4.132812 25.429688 C 2.675781 25.59375 1.378906 25.785156 0 26 L 0 0 L 3.863281 0 L 9.132812 14.761719 L 9.132812 0 L 13.1875 0 L 13.1875 24.320312 C 11.757812 24.566406 10.296875 24.644531 8.757812 24.863281 Z M 4.132812 11.238281 "/>
</g>
</svg>
